<svg width="994" height="491" viewBox="0 0 994 491" fill="none" xmlns="http://www.w3.org/2000/svg">
<path d="M655.155 29.5319C731.989 34.4159 803.52 52.3119 859.637 75.6532L875.787 77.4185L875.573 78.6599C900.657 84.8212 922.976 97.5452 947.091 106.168C948.045 110.025 979.971 125.121 987.523 151.697C989.063 150.695 989.927 154.423 989.397 155.768C984.996 162.872 988.32 173.589 992.048 179.888C991.539 183.185 989.493 189.308 990.712 192.653C977.415 205.033 966.765 222.325 960.692 242.179C955.871 246.785 952.352 254.569 950.793 262.236C943.189 265.793 938.101 273.469 931.045 278.387L928.28 278.084C919.833 286.391 917.453 292.164 908.512 300.672L914.955 302.751L878.328 316.976C843.375 365.632 796.153 355.849 759.397 390.468C760.293 389.812 757.867 395.5 756.903 395.929L735.548 398.409L701.337 412.82C667.517 426.048 615.307 445.047 580.695 453.744C456.516 484.951 333.083 504.848 231.521 477.051L231.901 475.669C225.752 474.555 218.517 472.921 213.041 468.635L202.44 470.596L201.968 469.019L195.452 469.911C193.331 465.756 185.203 467.192 182.12 466.856L182.064 465.251L171.109 464.053L171.485 462.669L151.728 456.776L151.697 452.488C147.593 448.095 71.6866 438.752 27.7959 392.088L27.4426 382.308L30.8373 379.031C2.84395 351.356 0.319945 396.723 0.0439453 305.836L10.7346 281.843C19.1226 279.632 38.232 268.531 40.748 257.336C44.6333 254.647 48.3013 249.913 50.868 245.195C47.6386 235.951 62.7719 227.017 66.7093 224.201L65.3253 223.733L107.452 189.032L104.611 188.053L121.408 174.216C124.029 172.057 126.428 172.101 129.381 170.889L128.767 169.776L134.524 166.655L135.585 164.207C150.304 155.299 165.441 148.649 181.069 143.207L180.667 141.905L193.409 136.313L193.353 134.709C195.305 133.101 198.616 133.589 199.353 129.767L230.777 115.105L232.768 113.464L233.765 112.643L229.021 113.705C228.265 111.899 231.925 112.375 233.376 111.709L227.181 110.176C269.433 84.7372 357.955 52.1759 403.56 44.9519L403.616 46.5572C417.343 41.7318 453.713 31.0212 467.988 32.3452L470.008 29.0279C485.465 20.0292 518.5 21.7479 536.625 17.9172L536.683 19.5225C549.431 15.8985 562.301 16.5425 575.22 15.1052C574.285 13.3105 577.648 12.5065 576.727 14.3239L582.313 14.2465C581.688 10.1825 586.988 12.4505 585.851 13.7025L601.611 10.6279L606.037 11.1105C607.465 11.5372 608.78 14.6239 610.227 14.7825C625.495 16.4505 641.675 13.0759 656.453 16.6505L656.543 18.2292L659.209 17.2132C665.569 15.9425 700.491 28.8625 655.155 29.5319Z" fill="#B4C7CF"/>
<path d="M656.128 19.7733C732.961 24.6573 804.492 42.5533 860.611 65.8959L876.757 67.6599L876.545 68.9013C901.629 75.0626 923.949 87.7866 948.061 96.4093C949.017 100.267 980.943 115.364 988.495 141.939C990.035 140.936 990.899 144.664 990.369 146.009C985.968 153.113 989.292 163.831 993.02 170.129C992.511 173.427 990.465 179.549 991.684 182.895C978.387 195.275 967.737 212.567 961.664 232.42C956.843 237.028 953.323 244.812 951.765 252.477C944.16 256.035 939.073 263.711 932.017 268.628L929.252 268.327C920.805 276.632 918.425 282.407 909.483 290.913L915.927 292.992L879.299 307.217C844.345 355.873 797.125 346.092 760.371 380.709C761.267 380.053 758.839 385.741 757.875 386.171L736.52 388.652L702.309 403.061C668.489 416.289 616.279 435.288 581.667 443.987C457.489 475.192 334.055 495.089 232.493 467.292L232.873 465.911C226.724 464.796 219.491 463.163 214.013 458.877L203.412 460.837L202.94 459.261L196.424 460.153C194.303 455.997 186.175 457.433 183.092 457.097L183.036 455.492L172.083 454.296L172.456 452.912L152.7 447.017L152.671 442.729C148.567 438.336 72.6587 428.993 28.768 382.331L28.4147 372.549L31.8093 369.273C3.81599 341.597 1.292 386.964 1.01733 296.079L11.7067 272.084C20.0947 269.873 39.204 258.772 41.72 247.577C45.6053 244.888 49.2747 240.155 51.84 235.436C48.612 226.192 63.744 217.259 67.6814 214.443L66.2987 213.976L108.424 179.273L105.584 178.295L122.38 164.457C125.001 162.299 127.401 162.343 130.355 161.131L129.74 160.017L135.496 156.896L136.557 154.448C151.276 145.541 166.413 138.892 182.041 133.448L181.639 132.147L194.381 126.555L194.325 124.951C196.279 123.343 199.588 123.831 200.325 120.008L231.749 105.348L234.737 102.885L229.995 103.947C229.239 102.14 232.897 102.617 234.348 101.952L228.153 100.419C270.405 74.9786 358.927 42.4186 404.532 35.1933L404.589 36.7986C418.315 31.9733 454.685 21.2626 468.96 22.5866L470.979 19.2679C486.437 10.2719 519.473 11.9906 537.597 8.15859L537.653 9.76393C550.403 6.1386 563.272 6.78529 576.192 5.34796C575.257 3.55196 578.62 2.74795 577.7 4.56529L583.285 4.48793C582.661 0.423933 587.96 2.69195 586.823 3.94395L602.583 0.869281L607.009 1.35329C608.437 1.77729 609.752 4.86528 611.199 5.02394C626.467 6.69194 642.647 3.31728 657.427 6.89195L657.515 8.4706L660.181 7.45595C666.54 6.18395 701.463 19.104 656.128 19.7733Z" fill="#E6F7FD"/>
</svg>
