<svg width="109" height="165" viewBox="0 0 109 165" fill="none" xmlns="http://www.w3.org/2000/svg">
<path fill-rule="evenodd" clip-rule="evenodd" d="M24.6014 160.049H25.0387C25.0387 160.049 27.7774 160.976 28.2401 161.069L25.0401 161.011L30.0134 162.151L37.1641 161.651L44.4881 160.923C43.7401 162.42 42.0147 162.584 43.0481 162.568L44.9121 162.468L45.7961 162.413C60.0254 157.369 75.4614 156.671 90.5067 150.696L94.6681 148.811L94.6814 148.591L93.6721 149.012L93.1667 149.221C95.7041 147.917 97.1121 147.832 97.7734 145.34C97.8654 144.997 96.6841 145.981 96.7494 145.632C96.9241 144.696 103.016 138.631 98.4427 135.888L87.5841 132.608L86.4241 132.416L83.8601 131.833L82.9414 131.651L83.7041 131.325L91.0027 131.539L93.1814 131.715C96.7001 132.183 109.833 134.781 108.251 140.253C105.663 143.24 101.684 145.268 98.7441 147.413L96.6494 149.181L97.3321 149.344L80.8414 156.209L81.3254 156.693L74.6947 157.956L61.9094 161.157C49.9294 163.443 37.0187 165.423 24.9067 162.98L20.3361 162.816L18.5441 161.856C18.4067 161.817 15.9774 161.248 16.4467 161.06C11.9507 160.493 6.94406 159.133 3.31739 156.333C3.21339 156.091 3.20939 155.3 3.63872 155.312C0.769391 156.655 0.369391 150.833 0.376057 149.585C0.864057 147.56 3.17473 146.812 4.69073 145.791L7.44139 143.199L11.7587 140.447L11.4574 140.371L13.2374 139.288C13.4881 139.16 14.7254 138.909 14.7401 138.504L19.5601 136.861L20.8681 136.323L21.4974 135.809L24.8267 134.663L25.1441 134.471C24.2147 134.515 25.1281 134.433 25.1027 134.397L24.4467 134.277C30.2267 131.724 36.8641 129.924 43.1374 129.175L49.9654 128.188L50.1801 127.929L57.2401 127.06C57.4707 127.165 64.5481 126.301 65.0387 126.815L69.9374 126.96L70.2307 127.004L72.3827 126.909L83.0601 127.016L84.1561 127.229L88.1307 127.549L89.5267 128.163L90.9481 128.629C93.6574 129.776 96.0801 129.171 98.6427 130.888L97.7707 130.579L95.1441 130.367L88.5481 129.209L86.1041 128.888L83.6654 128.691C74.8707 127.853 65.1307 128.197 56.4681 130.22L56.9921 129.039C55.5707 129.211 50.6907 131.312 51.7654 130.367L45.2147 131.531L41.8414 132.092L39.0254 132.769L34.6707 133.989L33.7294 134.311L31.3414 135.248L23.6894 138.221L21.7694 138.745C21.4281 138.912 21.4747 139.444 20.7707 139.503L21.0401 139.273C20.3987 139.063 20.2761 139.837 20.3441 139.74L14.0694 143.169L13.3667 143.599L8.30939 147.887C7.79339 148.324 9.48139 149.747 8.03873 149.563C9.04139 152.164 11.2334 154.74 14.0321 155.391C13.7787 155.552 15.8227 156.119 15.8227 156.119C15.8227 156.119 21.2481 158.428 22.8094 158.885L24.6014 160.049Z" fill="#1F4FA2"/>
<path fill-rule="evenodd" clip-rule="evenodd" d="M53.7655 0.165425C53.7655 0.165425 53.9948 0.702761 54.2788 1.03076C54.5375 0.998761 54.9575 0.160088 56.0948 0.282754C56.2175 0.998754 56.0948 1.54142 56.2175 1.83875C56.3402 1.54142 56.2175 1.41876 56.5362 0.592091C57.5335 1.80142 62.9348 5.46009 62.9348 7.71609C62.9348 9.81476 62.5148 15.1148 62.5148 17.7921C62.5148 18.9454 62.9868 27.4468 59.3655 27.4468C58.3162 27.4468 57.7082 26.9827 57.1242 26.6028C56.5148 27.3241 56.2175 27.6574 56.2175 28.7068C56.2175 29.7561 57.0362 31.5121 57.1135 32.4881C57.5468 31.4121 57.6002 29.6681 58.8962 28.7388C59.1562 35.0561 61.2548 36.6828 61.2548 40.4614C61.2548 40.6188 59.5748 47.3868 59.5748 48.0174C59.5748 48.9094 60.8348 54.3668 60.8348 54.5241C60.8348 55.5734 59.8722 55.4508 59.5748 55.5734C59.8722 55.6961 60.8348 55.9934 60.8348 57.0428C60.8348 58.0921 59.5748 59.6148 59.5748 60.6641V69.7948C59.5748 70.8454 60.8348 72.7854 60.8348 73.8361C60.8348 74.8841 59.9948 77.6134 59.9948 78.6628C59.9948 84.5401 62.9348 96.1374 62.9348 96.2948C62.9348 97.3441 61.6748 98.6041 61.6748 99.6534C61.6748 101.804 65.0335 113.559 65.0335 113.716C65.0335 114.765 64.1935 114.556 64.1935 115.605C64.1935 119.279 69.7882 140.716 71.7495 143.704C71.2868 144.76 69.9482 145.289 68.6988 146.236C67.5642 142.575 63.7735 135.284 63.7735 135.127C63.7735 134.077 65.0335 133.867 65.0335 132.817C65.0335 130.509 63.3548 127.623 63.3548 124.003C63.3548 123.109 62.9962 121.651 62.0255 119.799C60.3148 121.388 58.7362 124.316 58.7362 126.311C58.7362 127.78 63.1948 132.852 63.6042 133.507V135.323C62.2175 134.375 61.0228 132.747 60.0428 131.975C58.2535 133.999 59.5748 134.287 59.5748 136.596C59.5748 137.645 60.4148 137.225 60.4148 138.275C60.4148 139.325 59.8722 139.412 59.5735 139.579C61.7135 142.717 61.5575 147.676 62.4428 151.945L58.8682 152.435C58.7362 150.029 58.7362 146.828 58.7362 145.779C58.7362 143.575 55.1602 127.863 54.1428 125.54C56.3615 124.405 55.7975 124.159 55.7975 122.952C55.7975 122.691 54.9055 111.408 54.3282 111.408C53.2788 111.408 53.9948 111.704 53.2788 112.247C52.1428 111.285 50.5722 110.104 48.6602 108.889C48.6602 108.889 49.2028 108.592 49.5002 108.469C49.2028 108.347 48.6602 108.469 47.9748 108.375C47.0948 104.565 42.9428 102.399 40.5122 99.5974H39.2428C39.1602 101.436 38.1655 104.848 38.1655 107.629C38.1655 108.889 36.0655 115.133 36.1642 115.16V118.175C38.3522 116.516 40.7762 114.924 42.8268 112.669C42.8268 112.669 43.0802 113.209 43.6228 113.927C41.9775 115.745 37.3255 120.696 37.3255 121.903C37.3255 124.003 41.0748 126.256 39.8628 128.62C38.6295 126.708 37.4482 125.559 36.0695 124.003C32.7988 127.548 34.2282 133.148 31.0282 136.584C31.3255 136.719 31.8682 137.435 31.7015 137.351C31.0122 140.069 30.1548 143.059 28.7415 146.183C28.0895 146.252 27.2495 145.832 27.2495 144.783C27.2495 143.365 30.5908 134.031 32.2882 132.005L31.4495 131.109C31.8335 130.433 33.5468 122.9 33.5468 122.113C33.5468 121.063 33.2508 120.1 32.3815 119.125V116.959C33.1282 116.865 34.2642 117.828 34.3028 118.133C36.3055 112.565 36.6055 104.895 38.2015 99.4054C37.5575 99.1894 36.9055 97.7641 36.9055 96.7148C36.9055 95.6654 38.5935 92.0147 39.1588 89.6734C39.8442 89.5774 39.8442 89.9974 40.8948 89.9974C41.9442 89.9974 42.4868 88.0214 43.6228 87.4788C43.5002 88.1948 43.5002 88.0214 43.7842 88.3508C44.0428 88.3188 44.4628 87.8988 44.7868 87.8881C43.8428 90.5508 40.2642 93.3561 40.2642 96.2948C40.2642 98.5521 46.8535 101.509 48.2682 106.371C48.2682 106.371 48.2415 106.371 48.3642 105.631H51.0028C51.5548 106.603 51.5988 107.84 51.5988 108.889C51.5988 109.939 52.7362 109.432 52.8588 109.728C53.4015 109.012 54.1188 107.629 54.1188 106.58C54.1188 105.531 53.6975 105.951 52.9442 105.784C53.2935 103.945 53.7428 101.984 54.5428 100.56C54.2415 100.369 54.1188 99.6254 54.5388 93.3841C54.1268 91.3401 52.8588 87.6894 52.8588 86.6388C52.8588 85.5894 53.3002 83.9881 53.7095 82.9574C53.4015 82.7388 53.9082 82.4414 52.8588 82.4414C51.8095 82.4414 52.2295 82.0214 51.1802 82.0214C50.1295 82.0214 50.3402 81.1814 49.6428 81.0761C49.1362 77.8761 45.8002 73.8148 43.0788 71.9281C42.7842 71.9454 42.6602 72.6628 41.9442 72.7854C42.0668 72.0694 41.9442 72.3654 41.9442 71.3161C41.9442 70.2668 41.1642 67.5441 39.8802 65.0614C42.6975 64.2934 42.4255 62.3334 43.1548 61.4548C43.9188 61.9948 43.4135 61.8708 44.4628 61.8708C45.5122 61.8708 47.8215 59.9814 47.8215 58.9321C47.8215 57.4628 49.6588 59.6334 50.0548 56.1921H51.9962C49.5535 59.3667 43.2028 64.3894 43.2028 67.9574C43.2028 71.0548 50.7602 77.4041 51.1802 77.4041C52.2295 77.4041 52.1428 77.1068 52.9255 76.5694C53.6548 77.6348 53.6775 79.2148 53.2468 80.1814C53.2468 80.1814 53.2788 80.3428 53.4402 80.4308C53.7108 78.9814 53.7028 76.9188 53.9748 75.1974C54.1455 74.7374 53.6975 54.5241 53.6975 53.4748C53.6975 50.5881 44.4628 42.4028 44.4628 41.0908C44.4628 39.0961 50.3402 36.0014 50.3402 33.9548C50.3402 31.7494 46.5615 30.8054 46.6428 28.3388V26.3361H49.0242C48.6348 27.9054 49.2895 30.4948 51.2882 31.6601L53.7428 31.8774C53.7428 31.8774 53.9948 31.1028 53.5975 30.9521C54.3948 29.8894 54.9575 27.8148 54.9575 27.0268C54.9575 25.8721 52.4802 22.6081 51.4842 21.9734C51.1802 21.9894 51.4762 22.7068 50.7602 23.2481C50.0428 22.7068 50.0428 22.2854 49.9202 21.9894C49.7962 22.2854 49.5002 22.8294 48.7842 22.7068C48.6602 21.9894 48.2415 21.5694 48.3642 20.0134C49.0802 19.8908 49.0802 19.4708 50.1295 19.4708C51.1802 19.4708 51.5548 20.5428 51.6815 21.1588C54.4735 18.5241 54.5375 12.3348 54.5375 11.4948C54.5375 7.45476 56.9255 5.01876 52.0828 3.34543V1.22542C52.5615 0.702755 52.9815 0.702758 53.7655 0.165425Z" fill="#231F20"/>
</svg>
