<svg width="238" height="86" viewBox="0 0 238 86" fill="none" xmlns="http://www.w3.org/2000/svg">
<path d="M10.516 58.6988C13.7027 39.4748 66.0293 12.8148 121.509 5.34411C176.988 -2.12656 234.627 17.0628 234.627 29.8788C234.627 42.6961 184.459 72.5774 124.696 80.0481C64.9333 87.5188 7.32934 77.9228 10.516 58.6988Z" fill="white"/>
<path fill-rule="evenodd" clip-rule="evenodd" d="M187.193 1.74934C187.304 2.23867 189.287 1.91867 189.66 1.94933L189.673 2.232L198.663 2.95867L198.596 3.18534C199.423 3.27067 201.368 3.45334 201.82 4.344L203.504 4.19733L205.035 5.40133C206.121 5.38933 207.568 5.61333 208.464 6.29467C208.913 5.872 209.841 6.22533 210.095 6.70933L212.8 6.928L212.733 7.156C213.901 7.64933 215.459 7.788 216.7 7.53867C214.437 7.77334 216.579 8.04933 217.313 8.072C215.393 7.85067 216.031 8.61733 218.064 8.2L222.437 10.508C221.796 10.6227 220.872 10.3387 220.465 9.808L218.993 9.97334C218.527 9.41734 218.031 9.896 217.509 9.85334L217.495 9.56933L214.525 9.32933L214.512 9.04534L211.887 8.83467L211.976 8.58933L210.241 8.35733L210.321 8.14267L206.344 7.82133C206.18 7.132 204.623 8.04667 204.713 7.408L199.621 6.996L199.608 6.712L194.092 6.268L194.079 5.98267L188.563 5.53867L188.549 5.25467C170.139 3.76933 146.784 2.56133 128.293 6.90133L128.237 6.32667C125.337 6.384 122.493 6.89733 119.641 7.36667L118.724 7.80667L118.595 7.53333L103.011 10.6613L103.157 10.8587L93.9707 13.232L94.0561 13.456L93.9374 13.184L87.6001 14.7613L87.8574 15.196C83.8721 15.684 81.5201 15.7187 77.7521 17.5213L77.4921 17.2267L76.5814 17.9627L76.2387 17.692C75.9947 17.5907 75.5334 17.9933 75.6214 18.2493L72.1921 19.1693C72.2214 20.0533 70.5508 19.1613 70.2228 20.368L68.1774 20.9973L67.9521 20.6973C67.3908 21.048 65.5854 21.776 65.6494 21.98L64.0641 22.636L63.7881 22.3453L62.8787 23.0827L62.5574 22.808C61.9974 23.1587 60.1921 23.8867 60.2561 24.0907L57.8348 24.9627L57.5801 24.6693L55.8414 25.9027L55.4921 25.6373L54.5828 26.3733C54.0268 26.58 53.8081 25.792 52.9134 27.0933L48.5707 28.28L48.2281 29.3667L46.3148 29.9907L46.9241 29.4747L45.6308 29.7667L44.8307 30.2573C44.7161 30.4147 45.1761 30.4373 45.3481 30.528C43.2561 30.732 32.1161 37.7027 31.1561 38.288L31.2214 38.54L30.3854 38.756C30.1134 38.9213 29.8854 39.2693 29.5654 39.256C29.4134 39.5347 19.7054 47.3107 18.1294 48.956C18.1654 48.4493 17.3188 49.564 16.9134 49.8667C17.6054 50.5893 19.3547 49.8613 19.5521 50.54L17.5174 52.7453C17.1374 59.8507 17.6468 67.2907 26.7841 69.216C27.4001 68.96 26.0574 69.708 26.0041 69.764C25.8414 69.9347 26.2294 70.448 25.9947 70.472L28.1321 71.252L28.8241 71.0293C30.1601 71.6347 31.5614 72.208 32.9961 72.5187L32.3628 72.904C35.7401 73.708 37.0961 75.104 38.7734 75.156C34.5361 74.6667 43.3721 76.1453 43.5921 76.22L43.5161 76.4547L47.4134 76.7693C47.0854 76.8333 48.1734 76.6373 48.4134 76.8707C48.9748 77.416 47.9268 76.6053 47.5188 77.1427L47.8134 77.66C48.2441 77.9547 49.3614 77.4107 48.9641 77.184L50.4508 78.4293L53.6067 78.1173L53.8334 78.3693L55.9708 78.6387C55.8228 78.64 57.5187 78.7053 57.5841 79.004L61.0588 79.284L61.0561 79.5787L64.2081 79.832L64.6467 80.16C64.5467 80.516 63.4494 80.6907 63.1694 80.772L63.6134 80.848L64.8174 80.9907L67.2161 81.216C65.4561 81.424 68.9788 82.616 71.0428 82.0733C70.0388 81.1573 74.0934 81.7387 75.0734 82.6787L76.7134 82.2453L76.7934 82.824C77.1307 83.004 79.6427 81.9973 80.0334 82.796C84.5094 81.856 83.5961 83.3227 87.8321 82.744C87.6201 82 88.3521 82.7653 88.7387 82.656L90.1508 81.924L92.0294 82.076C92.0441 83.1107 96.0761 81.3293 96.6974 82.1587C98.3334 82.0267 107.168 79.6973 100.913 81.9333L103.008 81.536L102.915 81.812C114.103 77.7907 130.261 78.7547 142.56 75.92C164.484 70.8653 183.316 63.5347 204.037 55.3093L204.196 54.9307L209.417 52.9147L209.673 52.4773L213.449 51.0467L213.48 50.5467L210.055 51.9747C211.384 50.912 213.316 50.364 214.892 49.8213L213.879 50.5893L215.62 50.02C215.557 49.5973 219.055 48.02 219.052 47.872L217.913 48.0613C217.444 47.7787 218.624 47.92 218.533 47.5613L217.839 47.7707L217.048 47.708L218.469 46.4147L217.431 46.5853C219.259 46.1493 219.633 44.748 220.473 43.196L218.156 43.856C219.244 43.2933 220.828 41.9933 220.948 40.648C221.659 40.636 222.456 40.12 222.991 39.7067L221.749 39.8827L221.735 39.5987L222.66 39.3133L222.557 39.0987L223.444 38.8307L224.727 37.4213C223.332 35.992 224.721 33.388 223.625 32.0693L223.443 30.9493C223.547 30.752 224.983 30.304 224.269 30.444L225.649 29.8907C226.493 28.308 226.411 26.7733 225.499 25.2053C225.015 25.7653 223.851 25.0107 224.337 24.5507L222.995 24.724L223.237 23.356L221.985 21.816C220.549 22.144 201.684 15.2627 197.428 14.3973L197.507 14.1813L194.803 13.964L194.892 13.7187L192.733 13.452L192.813 13.2373L189.26 12.9507L189.003 12.648L186.927 12.232C187.695 12.3613 188.24 12.2027 188.652 11.4973L198.592 12.0067L199.653 12.0907L200.983 12.204C202.3 12.3107 203.453 12.6147 204.932 12.4027L205.157 11.98L210.085 12.3787L210.035 12.5973C216.047 13.688 221.396 15.9387 227.176 17.4653C227.404 18.148 235.057 20.8187 236.867 25.5213C237.235 25.344 237.444 26.004 237.316 26.2413C236.261 27.4987 237.057 29.396 237.951 30.5093C237.829 31.0933 237.339 32.1773 237.632 32.7693C234.444 34.9587 231.891 38.02 230.436 41.532C229.28 42.348 228.436 43.7253 228.063 45.0813C226.241 45.7107 225.021 47.0693 223.331 47.94L222.667 47.8853C220.643 49.356 220.073 50.3773 217.929 51.8827L219.475 52.2507L210.695 54.768C202.313 63.3813 190.991 61.6453 182.179 67.7787C182.364 67.616 183.508 68.796 183.273 68.8733L176.473 69.1787L168.273 71.728C160.167 74.068 147.653 77.4293 139.357 78.9693C109.593 84.4907 80.0094 88.012 55.6668 83.0933L55.7574 82.8493C54.2841 82.652 52.5494 82.3627 51.2374 81.604L48.6961 81.9507L48.5841 81.672L47.0214 81.8293C46.5134 81.0947 44.5641 81.3493 43.8254 81.2893L43.8121 81.0053L41.1868 80.7933L41.2761 80.548L36.5414 79.5053L36.5334 78.7467C35.5507 77.9693 17.3561 76.3173 6.83742 68.0587L6.7521 66.328L7.56543 65.7493C0.856096 60.8507 0.252091 68.8787 0.185425 52.796L2.74674 48.5507C4.75741 48.16 9.33876 46.196 9.94143 44.2147C10.8721 43.7387 11.7521 42.9 12.3668 42.0667C11.5934 40.4293 15.2201 38.8493 16.1641 38.3507L15.8334 38.2693L25.9294 32.128L25.2481 31.9547L29.2734 29.5067C29.9027 29.124 30.4774 29.132 31.1854 28.9173L31.0388 28.72L32.4174 28.168L32.6721 27.736C36.2001 26.1587 39.8281 24.9813 43.5734 24.02L43.4774 23.7893L46.5321 22.7987L46.5188 22.5147C46.9868 22.2307 47.7787 22.3173 47.9561 21.64L55.4881 19.0467L55.9654 18.756L56.2041 18.6107L55.0667 18.7987C54.8854 18.4787 55.7628 18.564 56.1108 18.4453L54.6267 18.1747C64.7534 13.6733 85.9707 7.91067 96.9014 6.632L96.9147 6.91734C100.204 6.06267 108.921 4.168 112.344 4.40133L112.827 3.81467C116.532 2.22267 124.451 2.52667 128.795 1.84933L128.808 2.13333C131.864 1.49067 134.948 1.60534 138.044 1.35067C137.821 1.03334 138.627 0.892002 138.405 1.21334L139.745 1.19867C139.596 0.48 140.865 0.881335 140.593 1.10267L144.371 0.558668L145.432 0.644C145.773 0.72 146.088 1.26533 146.435 1.29333C150.095 1.58933 153.973 0.992001 157.515 1.624L157.536 1.904L158.176 1.724C159.7 1.49867 161.507 1.37867 163.047 1.50934C166.503 -0.461331 182.217 1.34934 187.193 1.74934Z" fill="#1F4FA2"/>
</svg>
