<svg width="483" height="240" viewBox="0 0 483 240" fill="none" xmlns="http://www.w3.org/2000/svg">
<path d="M317.829 14.7359C355.1 17.1159 389.795 25.8345 417.012 37.2079L424.844 38.0665L424.741 38.6718C436.909 41.6745 447.735 47.8732 459.432 52.0745C459.895 53.9532 475.38 61.3092 479.044 74.2572C479.789 73.7692 480.209 75.5852 479.952 76.2412C477.817 79.7025 479.429 84.9239 481.24 87.9932C480.992 89.5985 480 92.5825 480.592 94.2118C474.14 100.244 468.975 108.669 466.029 118.343C463.689 120.587 461.983 124.38 461.227 128.115C457.54 129.848 455.072 133.588 451.649 135.984L450.309 135.836C446.212 139.884 445.057 142.697 440.72 146.841L443.844 147.855L426.08 154.785C409.124 178.492 386.22 173.725 368.392 190.592C368.827 190.273 367.649 193.044 367.181 193.253L356.824 194.461L340.229 201.483C323.827 207.927 298.501 217.184 281.715 221.421C221.48 236.627 161.609 246.321 112.349 232.777L112.535 232.104C109.549 231.561 106.041 230.765 103.384 228.677L98.2414 229.632L98.0147 228.864L94.852 229.298C93.824 227.274 89.8813 227.975 88.3867 227.811L88.36 227.028L83.044 226.445L83.2267 225.771L73.644 222.898L73.6294 220.809C71.64 218.669 34.8213 214.117 13.532 191.381L13.36 186.617L15.0067 185.02C1.42934 171.536 0.204021 193.64 0.0720215 149.357L5.25734 137.667C9.32401 136.591 18.5947 131.181 19.8147 125.728C21.7 124.417 23.4774 122.111 24.724 119.812C23.1574 115.308 30.4973 110.956 32.4067 109.583L31.7373 109.356L52.1694 92.4478L50.792 91.9705L58.94 85.2292C60.2093 84.1772 61.3747 84.1985 62.804 83.6078L62.5067 83.0665L65.3 81.5452L65.8147 80.3518C72.9547 76.0118 80.2973 72.7732 87.8773 70.1212L87.6814 69.4865L93.864 66.7625L93.8347 65.9812C94.7813 65.1972 96.3867 65.4345 96.744 63.5718L111.987 56.4292L112.955 55.6292L113.437 55.2292L111.137 55.7465C110.769 54.8665 112.541 55.0985 113.247 54.7745L110.244 54.0278C130.737 41.6332 173.675 25.7678 195.795 22.2492L195.821 23.0305C202.48 20.6798 220.121 15.4612 227.047 16.1065L228.024 14.4905C235.524 10.1065 251.544 10.9438 260.337 9.07718L260.364 9.85851C266.549 8.09318 272.792 8.40785 279.057 7.70652C278.604 6.83185 280.235 6.44118 279.789 7.32651L282.5 7.28786C282.197 5.30919 284.764 6.41319 284.215 7.02386L291.86 5.52518L294.007 5.76118C294.7 5.96785 295.337 7.47185 296.037 7.54919C303.444 8.36252 311.292 6.71852 318.46 8.45985L318.501 9.22918L319.797 8.73451C322.881 8.11451 339.82 14.4092 317.829 14.7359Z" fill="#8C959A"/>
<path d="M318.249 13.8972C355.517 16.2772 390.212 24.9958 417.432 36.3692L425.264 37.2278L425.161 37.8332C437.329 40.8358 448.154 47.0345 459.849 51.2358C460.312 53.1145 475.798 60.4705 479.461 73.4185C480.206 72.9305 480.629 74.7465 480.369 75.4025C478.234 78.8638 479.849 84.0852 481.657 87.1545C481.409 88.7612 480.417 91.7438 481.009 93.3732C474.56 99.4052 469.394 107.83 466.446 117.504C464.109 119.748 462.401 123.541 461.646 127.276C457.957 129.009 455.489 132.749 452.066 135.145L450.726 134.997C446.629 139.045 445.474 141.857 441.137 146.002L444.261 147.016L426.497 153.946C409.544 177.653 386.638 172.886 368.812 189.753C369.246 189.434 368.069 192.205 367.598 192.414L357.241 193.622L340.646 200.644C324.244 207.089 298.921 216.345 282.132 220.584C221.9 235.788 162.029 245.481 112.766 231.938L112.952 231.265C109.969 230.722 106.458 229.926 103.801 227.838L98.6597 228.793L98.4317 228.025L95.2717 228.46C94.241 226.436 90.301 227.136 88.8037 226.97L88.7784 226.189L83.4637 225.606L83.6464 224.932L74.061 222.06L74.049 219.97C72.057 217.83 35.2397 213.278 13.9517 190.542L13.7784 185.777L15.4264 184.181C1.84635 170.697 0.62368 192.801 0.489014 148.52L5.67702 136.828C9.74369 135.752 19.0117 130.342 20.2317 124.888C22.117 123.578 23.897 121.272 25.141 118.973C23.577 114.469 30.917 110.117 32.8237 108.744L32.1544 108.516L52.5864 91.6092L51.2117 91.1318L59.357 84.3905C60.629 83.3385 61.7917 83.3598 63.2237 82.7705L62.9263 82.2265L65.7184 80.7065L66.2344 79.5132C73.3717 75.1732 80.7143 71.9345 88.297 69.2825L88.101 68.6478L94.281 65.9238L94.2543 65.1412C95.201 64.3585 96.8037 64.5958 97.1637 62.7332L112.406 55.5905L113.372 54.7905L113.857 54.3905L111.554 54.9078C111.189 54.0278 112.961 54.2598 113.666 53.9358L110.661 53.1892C131.157 40.7945 174.092 24.9305 196.214 21.4105L196.24 22.1918C202.9 19.8412 220.54 14.6225 227.464 15.2678L228.441 13.6518C235.941 9.26783 251.964 10.1052 260.754 8.2385L260.781 9.02115C266.966 7.25449 273.209 7.56917 279.477 6.86783C279.021 5.99317 280.654 5.60249 280.206 6.48783L282.917 6.44917C282.614 4.47051 285.184 5.57449 284.632 6.18515L292.277 4.6865L294.424 4.9225C295.117 5.12917 295.754 6.63317 296.457 6.7105C303.861 7.52384 311.709 5.87984 318.88 7.62117L318.921 8.3905L320.214 7.89583C323.298 7.27583 340.237 13.5705 318.249 13.8972Z" fill="#979FA3"/>
<path d="M319.087 12.2225C356.355 14.6025 391.049 23.3212 418.269 34.6945L426.101 35.5545L425.999 36.1598C438.167 39.1612 448.992 45.3612 460.687 49.5612C461.149 51.4412 476.636 58.7958 480.299 71.7438C481.044 71.2558 481.467 73.0718 481.207 73.7278C479.072 77.1892 480.687 82.4105 482.495 85.4798C482.247 87.0865 481.255 90.0692 481.847 91.6985C475.396 97.7318 470.232 106.156 467.284 115.829C464.947 118.074 463.239 121.866 462.484 125.601C458.795 127.334 456.327 131.074 452.904 133.47L451.564 133.322C447.467 137.37 446.312 140.184 441.975 144.329L445.099 145.341L427.335 152.272C410.379 175.978 387.476 171.212 369.649 188.078C370.084 187.76 368.907 190.53 368.436 190.74L358.079 191.949L341.484 198.969C325.081 205.414 299.759 214.67 282.969 218.909C222.736 234.113 162.867 243.808 113.604 230.264L113.789 229.592C110.807 229.048 107.296 228.252 104.639 226.164L99.4973 227.118L99.2693 226.35L96.1093 226.785C95.0787 224.761 91.1387 225.461 89.6413 225.297L89.6147 224.514L84.3013 223.932L84.484 223.257L74.8987 220.385L74.8867 218.297C72.8947 216.156 36.076 211.604 14.7893 188.869L14.616 184.104L16.264 182.506C2.684 169.022 1.46133 191.126 1.32666 146.845L6.51467 135.154C10.5813 134.077 19.8493 128.668 21.0693 123.214C22.9547 121.904 24.7347 119.597 25.9787 117.298C24.4147 112.794 31.7547 108.442 33.6613 107.07L32.992 106.842L53.424 89.9345L52.0493 89.4585L60.1947 82.7158C61.4667 81.6638 62.6293 81.6852 64.0613 81.0958L63.764 80.5532L66.556 79.0318L67.072 77.8398C74.2093 73.4998 81.552 70.2598 89.132 67.6078L88.9387 66.9732L95.1187 64.2492L95.092 63.4678C96.0387 62.6838 97.6413 62.9212 98.0013 61.0598L113.241 53.9172L114.209 53.1172L114.695 52.7172L112.392 53.2345C112.027 52.3545 113.799 52.5852 114.504 52.2612L111.499 51.5145C131.995 39.1198 174.929 23.2558 197.052 19.7358L197.076 20.5185C203.736 18.1665 221.376 12.9478 228.301 13.5932L229.279 11.9772C236.779 7.59317 252.801 8.4305 261.592 6.56384L261.619 7.34649C267.804 5.57982 274.047 5.89449 280.315 5.19449C279.859 4.31983 281.492 3.92783 281.044 4.81316L283.755 4.77449C283.452 2.79582 286.021 3.89982 285.469 4.51049L293.115 3.01183L295.261 3.24784C295.955 3.4545 296.592 4.95982 297.295 5.03582C304.699 5.84915 312.547 4.20517 319.716 5.94651L319.759 6.71583L321.052 6.22116C324.136 5.6025 341.075 11.8972 319.087 12.2225Z" fill="#AEB4B5"/>
<path d="M319.505 11.3852C356.773 13.7652 391.47 22.4839 418.688 33.8572L426.52 34.7159L426.417 35.3212C438.585 38.3239 449.41 44.5226 461.108 48.7239C461.57 50.6026 477.054 57.9586 480.72 70.9066C481.465 70.4186 481.885 72.2346 481.628 72.8906C479.493 76.3519 481.105 81.5732 482.914 84.6426C482.668 86.2492 481.674 89.2319 482.265 90.8612C475.814 96.8946 470.65 105.319 467.705 114.992C465.365 117.236 463.657 121.029 462.902 124.764C459.214 126.497 456.748 130.237 453.325 132.633L451.982 132.485C447.888 136.533 446.733 139.345 442.394 143.491L445.52 144.504L427.756 151.435C410.8 175.141 387.894 170.375 370.068 187.241C370.502 186.923 369.325 189.693 368.857 189.903L358.5 191.111L341.905 198.132C325.502 204.576 300.177 213.833 283.39 218.071C223.154 233.276 163.285 242.969 114.025 229.427L114.208 228.753C111.225 228.211 107.717 227.415 105.06 225.327L99.9171 226.281L99.6905 225.513L96.5278 225.948C95.4998 223.924 91.5571 224.624 90.0598 224.46L90.0345 223.677L84.7198 223.095L84.9025 222.42L75.3198 219.548L75.3051 217.459C73.3145 215.319 36.4944 210.767 15.2078 188.031L15.0345 183.265L16.6825 181.669C3.10512 168.185 1.8798 190.289 1.7478 146.007L6.93313 134.316C10.9998 133.24 20.2705 127.831 21.4905 122.376C23.3745 121.067 25.1531 118.76 26.3998 116.461C24.8331 111.957 32.1731 107.605 34.0825 106.232L33.4131 106.004L53.8451 89.0972L52.4678 88.6199L60.6158 81.8786C61.8851 80.8266 63.0505 80.8479 64.4798 80.2572L64.1825 79.7146L66.9745 78.1946L67.4905 77.0012C74.6305 72.6612 81.9731 69.4226 89.5531 66.7706L89.3571 66.1359L95.5371 63.4119L95.5105 62.6292C96.4571 61.8466 98.0625 62.0839 98.4198 60.2212L113.662 53.0786L114.63 52.2786L115.113 51.8786L112.813 52.3959C112.445 51.5159 114.217 51.7479 114.922 51.4239L111.92 50.6772C132.413 38.2826 175.35 22.4186 197.47 18.8986L197.497 19.6799C204.154 17.3292 221.797 12.1106 228.722 12.7559L229.7 11.1399C237.197 6.75589 253.22 7.59322 262.013 5.72656L262.04 6.50789C268.225 4.74255 274.468 5.05722 280.733 4.35589C280.28 3.48122 281.91 3.09055 281.465 3.97588L284.174 3.93723C283.873 1.95856 286.44 3.06256 285.89 3.67323L293.534 2.17455L295.682 2.41056C296.373 2.61722 297.013 4.12123 297.713 4.19856C305.12 5.01189 312.968 3.36789 320.134 5.10923L320.177 5.87855L321.473 5.38388C324.557 4.76388 341.494 11.0586 319.505 11.3852Z" fill="#BABFBE"/>
<path d="M318.803 9.83988C356.071 12.2199 390.763 20.9385 417.983 32.3105L425.812 33.1705L425.712 33.7759C437.877 36.7772 448.703 42.9772 460.397 47.1772C460.863 49.0559 476.348 56.4119 480.011 69.3599C480.757 68.8719 481.177 70.6879 480.917 71.3439C478.785 74.8039 480.397 80.0252 482.205 83.0945C481.957 84.7012 480.965 87.6839 481.557 89.3145C475.108 95.3452 469.943 103.771 466.997 113.443C464.657 115.688 462.951 119.48 462.195 123.215C458.508 124.948 456.037 128.688 452.617 131.084L451.275 130.937C447.177 134.984 446.023 137.797 441.685 141.941L444.812 142.955L427.045 149.885C410.092 173.591 387.191 168.825 369.363 185.691C369.797 185.371 368.62 188.143 368.152 188.352L357.795 189.56L341.203 196.581C324.797 203.025 299.475 212.281 282.685 216.52C222.455 231.724 162.588 241.417 113.325 227.875L113.511 227.201C110.528 226.659 107.017 225.863 104.363 223.775L99.2199 224.729L98.9919 223.961L95.8319 224.396C94.8025 222.372 90.8599 223.072 89.3652 222.908L89.3372 222.125L84.0252 221.543L84.2052 220.868L74.6252 217.996L74.6106 215.907C72.6199 213.767 35.7999 209.216 14.5119 186.48L14.3399 181.715L15.9879 180.119C2.41056 166.635 1.18522 188.737 1.05322 144.457L6.23722 132.768C10.3052 131.691 19.5746 126.281 20.7946 120.828C22.6799 119.517 24.4572 117.212 25.7052 114.912C24.1372 110.409 31.4772 106.056 33.3879 104.684L32.7172 104.456L53.1506 87.5492L51.7705 87.0719L59.9172 80.3319C61.1879 79.2799 62.3519 79.3012 63.7852 78.7105L63.4879 78.1679L66.2772 76.6465L66.7946 75.4545C73.9319 71.1145 81.2745 67.8745 88.8545 65.2225L88.6599 64.5892L94.8399 61.8652L94.8145 61.0825C95.7599 60.2999 97.3652 60.5372 97.7225 58.6745L112.965 51.5319L113.931 50.7319L114.415 50.3319L112.112 50.8492C111.748 49.9692 113.523 50.2012 114.225 49.8772L111.22 49.1305C131.715 36.7359 174.651 20.8719 196.771 17.3519L196.797 18.1345C203.455 15.7839 221.097 10.5652 228.02 11.2105L229 9.59454C236.497 5.21054 252.52 6.04787 261.311 4.18121L261.337 4.96386C267.523 3.19719 273.763 3.51186 280.031 2.81186C279.577 1.9372 281.208 1.5452 280.763 2.43054L283.471 2.3932C283.168 0.413202 285.74 1.5172 285.188 2.12786L292.831 0.629205L294.977 0.865208C295.671 1.07187 296.308 2.57721 297.011 2.65321C304.415 3.46655 312.263 1.82254 319.432 3.56388L319.475 4.3332L320.768 3.83854C323.852 3.21987 340.791 9.51321 318.803 9.83988Z" fill="#EBEAE2"/>
</svg>
