<svg width="642" height="323" viewBox="0 0 642 323" fill="none" xmlns="http://www.w3.org/2000/svg">
<path d="M420.643 25.148C469.96 28.2973 515.873 39.836 551.895 54.8853L562.259 56.0226L562.123 56.8239C578.223 60.7959 592.549 69 608.027 74.5586C608.64 77.0466 629.132 86.78 633.979 103.915C634.967 103.268 635.523 105.672 635.181 106.54C632.357 111.12 634.492 118.029 636.884 122.091C636.557 124.216 635.244 128.164 636.027 130.321C627.492 138.304 620.656 149.452 616.757 162.252C613.664 165.223 611.404 170.243 610.404 175.184C605.523 177.479 602.256 182.427 597.729 185.597L595.953 185.403C590.532 190.759 589.004 194.481 583.264 199.967L587.4 201.307L563.891 210.479C541.455 241.849 511.145 235.543 487.552 257.863C488.128 257.44 486.571 261.107 485.951 261.384L472.245 262.983L450.285 272.275C428.577 280.803 395.065 293.052 372.849 298.66C293.141 318.78 213.913 331.609 148.724 313.687L148.968 312.796C145.021 312.077 140.377 311.025 136.863 308.261L130.057 309.525L129.755 308.508L125.572 309.084C124.212 306.404 118.993 307.331 117.015 307.113L116.979 306.079L109.948 305.307L110.188 304.415L97.5079 300.615L97.4879 297.849C94.8533 295.017 46.1306 288.995 17.9586 258.908L17.7319 252.601L19.9106 250.488C1.9426 232.644 0.322606 261.895 0.146606 203.296L7.00793 187.827C12.3919 186.401 24.6573 179.243 26.2733 172.025C28.7666 170.292 31.1199 167.24 32.7679 164.197C30.6959 158.237 40.4093 152.477 42.936 150.661L42.0493 150.36L69.088 127.985L67.2653 127.355L78.0453 118.433C79.7279 117.041 81.268 117.071 83.164 116.289L82.7693 115.571L86.4639 113.559L87.1466 111.98C96.5933 106.237 106.309 101.949 116.341 98.44L116.083 97.6013L124.261 93.996L124.225 92.9613C125.479 91.924 127.603 92.2386 128.076 89.7746L148.247 80.3226L150.165 78.7346L147.12 79.4186C146.635 78.2546 148.983 78.5613 149.915 78.132L145.939 77.144C173.059 60.7413 229.879 39.748 259.151 35.0906L259.187 36.1253C267.997 33.0133 291.343 26.108 300.505 26.9626L301.801 24.8226C311.724 19.0213 332.928 20.1293 344.561 17.6599L344.597 18.6946C352.781 16.3573 361.041 16.7733 369.333 15.8466C368.733 14.6893 370.893 14.1706 370.303 15.3426L373.888 15.2933C373.487 12.6733 376.888 14.1346 376.157 14.9426L386.275 12.96L389.115 13.2719C390.032 13.5453 390.875 15.536 391.804 15.6386C401.604 16.7133 411.989 14.5386 421.476 16.8426L421.533 17.8613L423.244 17.2066C427.327 16.3866 449.741 24.716 420.643 25.148Z" fill="#CED3D6"/>
<path d="M421.563 23.9213C470.88 27.0706 516.793 38.6093 552.815 53.6586L563.179 54.7959L563.043 55.5973C579.143 59.5693 593.469 67.7733 608.947 73.3319C609.56 75.8199 630.052 85.5533 634.899 102.688C635.888 102.041 636.443 104.445 636.103 105.313C633.277 109.893 635.412 116.803 637.804 120.864C637.477 122.989 636.164 126.937 636.947 129.095C628.412 137.077 621.576 148.225 617.677 161.027C614.584 163.996 612.324 169.015 611.324 173.957C606.443 176.252 603.176 181.2 598.649 184.371L596.873 184.176C591.452 189.532 589.924 193.255 584.184 198.74L588.32 200.08L564.811 209.252C542.375 240.623 512.065 234.316 488.472 256.636C489.048 256.213 487.491 259.88 486.871 260.157L473.165 261.756L451.205 271.048C429.497 279.576 395.985 291.825 373.769 297.433C294.061 317.553 214.833 330.383 149.644 312.46L149.888 311.569C145.941 310.851 141.297 309.799 137.781 307.035L130.977 308.299L130.675 307.283L126.492 307.857C125.131 305.177 119.913 306.104 117.935 305.887L117.899 304.852L110.868 304.08L111.108 303.188L98.428 299.388L98.408 296.623C95.7733 293.791 47.0507 287.767 18.8787 257.681L18.652 251.375L20.8306 249.261C2.86265 231.417 1.24265 260.668 1.06665 202.069L7.92798 186.599C13.312 185.175 25.5773 178.016 27.192 170.799C29.6866 169.065 32.04 166.013 33.688 162.971C31.616 157.011 41.3293 151.251 43.856 149.435L42.9693 149.133L70.008 126.759L68.184 126.128L78.9667 117.207C80.648 115.815 82.188 115.843 84.084 115.063L83.6893 114.344L87.384 112.332L88.0667 110.753C97.5133 105.011 107.229 100.723 117.261 97.2133L117.003 96.3746L125.181 92.7693L125.145 91.7346C126.399 90.6973 128.523 91.0119 128.996 88.5479L149.167 79.0959L151.085 77.5079L148.04 78.1919C147.556 77.0279 149.903 77.3346 150.835 76.9053L146.859 75.9173C173.979 59.5146 230.799 38.5213 260.071 33.8639L260.107 34.8986C268.917 31.7866 292.263 24.8813 301.425 25.7359L302.721 23.5959C312.644 17.7946 333.848 18.9026 345.481 16.4333L345.517 17.4679C353.701 15.1306 361.961 15.5466 370.253 14.6199C369.653 13.4626 371.813 12.9439 371.223 14.1159L374.808 14.0666C374.407 11.4466 377.808 12.9079 377.077 13.7159L387.193 11.7333L390.035 12.0453C390.952 12.3186 391.795 14.3093 392.724 14.4119C402.524 15.4866 412.909 13.3119 422.396 15.6159L422.453 16.6346L424.164 15.9799C428.247 15.1599 450.661 23.4893 421.563 23.9213Z" fill="#D8DCDE"/>
<path d="M422.252 23.0026C471.569 26.1519 517.483 37.6906 553.504 52.7399L563.868 53.8773L563.732 54.6786C579.832 58.6506 594.159 66.8546 609.636 72.4132C610.249 74.9012 630.741 84.6346 635.588 101.769C636.577 101.123 637.132 103.527 636.792 104.395C633.967 108.975 636.101 115.884 638.493 119.945C638.167 122.071 636.853 126.019 637.636 128.176C629.101 136.159 622.265 147.307 618.368 160.108C615.273 163.077 613.013 168.097 612.013 173.04C607.132 175.333 603.865 180.281 599.339 183.453L597.563 183.257C592.141 188.613 590.613 192.336 584.873 197.821L589.009 199.161L565.5 208.333C543.064 239.704 512.755 233.397 489.163 255.717C489.737 255.295 488.18 258.961 487.56 259.239L473.855 260.839L451.895 270.129C430.187 278.657 396.675 290.907 374.459 296.515C294.752 316.636 215.523 329.464 150.333 311.541L150.577 310.651C146.631 309.932 141.987 308.88 138.472 306.116L131.667 307.38L131.364 306.364L127.181 306.939C125.821 304.26 120.603 305.185 118.624 304.968L118.588 303.933L111.557 303.163L111.797 302.269L99.1173 298.469L99.0973 295.705C96.4627 292.872 47.74 286.849 19.568 256.763L19.3413 250.456L21.52 248.344C3.55198 230.499 1.93198 259.749 1.75598 201.151L8.61731 185.68C14.0013 184.256 26.2666 177.099 27.8826 169.88C30.376 168.147 32.7307 165.095 34.3773 162.052C32.3053 156.092 42.0187 150.332 44.5453 148.516L43.6586 148.215L70.6973 125.841L68.8747 125.209L79.6547 116.288C81.3373 114.896 82.8773 114.925 84.7733 114.144L84.3787 113.425L88.0733 111.413L88.756 109.835C98.2027 104.092 107.919 99.8039 117.951 96.2946L117.692 95.4559L125.871 91.8506L125.835 90.8159C127.088 89.7786 129.212 90.0932 129.685 87.6292L149.856 78.1772L151.775 76.5892L148.729 77.2732C148.244 76.1092 150.592 76.4159 151.524 75.9879L147.548 74.9986C174.668 58.5959 231.488 37.6026 260.76 32.9452L260.796 33.9799C269.607 30.8679 292.952 23.9626 302.115 24.8172L303.411 22.6772C313.333 16.8759 334.537 17.9852 346.171 15.5146L346.207 16.5492C354.391 14.2119 362.651 14.6279 370.944 13.7012C370.343 12.5439 372.503 12.0266 371.912 13.1972L375.497 13.1479C375.096 10.5279 378.497 11.9892 377.767 12.7972L387.884 10.8146L390.724 11.1266C391.641 11.3999 392.484 13.3906 393.413 13.4932C403.213 14.5679 413.6 12.3932 423.085 14.6972L423.143 15.7159L424.853 15.0612C428.936 14.2412 451.352 22.5706 422.252 23.0026Z" fill="#E0E3E5"/>
<path d="M423.172 21.7759C472.489 24.9252 518.403 36.4639 554.424 51.5132L564.788 52.6505L564.652 53.4519C580.752 57.4239 595.079 65.6279 610.556 71.1866C611.169 73.6746 631.661 83.4079 636.508 100.543C637.497 99.8959 638.052 102.3 637.712 103.168C634.887 107.748 637.021 114.657 639.413 118.719C639.087 120.844 637.773 124.792 638.556 126.949C630.021 134.932 623.185 146.08 619.287 158.88C616.193 161.851 613.933 166.869 612.933 171.812C608.052 174.107 604.785 179.055 600.259 182.225L598.483 182.031C593.061 187.387 591.533 191.109 585.793 196.595L589.929 197.935L566.42 207.107C543.984 238.477 513.675 232.171 490.083 254.491C490.657 254.068 489.1 257.735 488.48 258.012L474.775 259.611L452.815 268.903C431.107 277.431 397.595 289.68 375.379 295.288C295.671 315.408 216.443 328.237 151.253 310.315L151.497 309.424C147.551 308.705 142.907 307.653 139.391 304.889L132.587 306.153L132.285 305.136L128.101 305.712C126.74 303.032 121.523 303.959 119.544 303.741L119.508 302.707L112.477 301.935L112.717 301.043L100.037 297.243L100.017 294.477C97.3826 291.645 48.6599 285.623 20.4879 255.536L20.2612 249.229L22.4399 247.116C4.4719 229.272 2.8519 258.523 2.6759 199.924L9.53723 184.453C14.9212 183.029 27.1866 175.871 28.8012 168.653C31.2959 166.92 33.6492 163.868 35.2986 160.825C33.2252 154.865 42.9386 149.105 45.4652 147.289L44.5786 146.988L71.6173 124.613L69.7946 123.983L80.5759 115.061C82.2573 113.669 83.7986 113.697 85.6933 112.917L85.2986 112.199L88.9932 110.187L89.6759 108.608C99.1226 102.864 108.839 98.5772 118.871 95.0679L118.612 94.2292L126.791 90.6239L126.755 89.5892C128.008 88.5519 130.132 88.8666 130.605 86.4026L150.776 76.9506L152.695 75.3625L149.649 76.0465C149.164 74.8825 151.512 75.1892 152.444 74.7599L148.468 73.7719C175.588 57.3692 232.408 36.3759 261.68 31.7172L261.716 32.7532C270.527 29.6412 293.872 22.7359 303.035 23.5905L304.331 21.4506C314.253 15.6492 335.457 16.7572 347.091 14.2879L347.127 15.3225C355.311 12.9852 363.571 13.4012 371.863 12.4745C371.263 11.3172 373.423 10.7986 372.831 11.9706L376.417 11.9199C376.016 9.30121 379.417 10.7625 378.687 11.5692L388.803 9.58788L391.644 9.89987C392.561 10.1732 393.404 12.1639 394.333 12.2666C404.133 13.3412 414.519 11.1666 424.005 13.4706L424.063 14.4892L425.773 13.8345C429.856 13.0145 452.271 21.3439 423.172 21.7759Z" fill="#EAECEE"/>
<path d="M424.881 12.4946C474.199 15.644 520.112 27.1826 556.132 42.232L566.496 43.3693L566.361 44.1706C582.461 48.144 596.788 56.3467 612.265 61.9067C612.879 64.3933 633.371 74.1266 638.217 91.2613C639.205 90.6146 639.761 93.0187 639.42 93.8867C636.596 98.4666 638.731 105.376 641.121 109.437C640.796 111.564 639.483 115.511 640.265 117.668C631.731 125.651 624.893 136.799 620.996 149.6C617.903 152.569 615.643 157.589 614.643 162.532C609.761 164.825 606.495 169.775 601.967 172.944L600.191 172.749C594.771 178.105 593.243 181.828 587.503 187.313L591.639 188.653L568.129 197.825C545.693 229.196 515.384 222.889 491.791 245.209C492.367 244.787 490.809 248.453 490.189 248.731L476.483 250.331L454.524 259.621C432.816 268.149 399.304 280.399 377.088 286.007C297.381 306.128 218.152 318.956 152.963 301.035L153.207 300.144C149.26 299.425 144.616 298.372 141.101 295.608L134.295 296.872L133.993 295.856L129.811 296.431C128.449 293.752 123.231 294.677 121.253 294.46L121.217 293.425L114.187 292.653L114.427 291.761L101.745 287.961L101.727 285.197C99.092 282.364 50.3693 276.341 22.1973 246.255L21.9707 239.948L24.1493 237.835C6.18133 219.992 4.56137 249.243 4.38403 190.644L11.2467 175.173C16.6307 173.748 28.896 166.591 30.512 159.372C33.0053 157.639 35.3587 154.587 37.0067 151.544C34.9333 145.584 44.648 139.824 47.1747 138.008L46.288 137.707L73.3267 115.333L71.5027 114.703L82.284 105.78C83.9667 104.388 85.5067 104.417 87.4027 103.636L87.008 102.917L90.7014 100.905L91.384 99.3267C100.832 93.584 110.548 89.2973 120.58 85.7867L120.32 84.948L128.5 81.3426L128.464 80.308C129.717 79.272 131.841 79.5853 132.315 77.1213L152.484 67.6693L153.764 66.6107L154.403 66.0813L151.357 66.7666C150.873 65.6013 153.221 65.9093 154.153 65.48L150.177 64.4907C177.297 48.088 234.117 27.0946 263.389 22.436L263.425 23.472C272.236 20.3613 295.581 13.456 304.744 14.3093L306.04 12.1693C315.961 6.36931 337.167 7.47732 348.8 5.00665L348.836 6.04132C357.02 3.70399 365.28 4.11997 373.572 3.19464C372.972 2.03597 375.132 1.51864 374.541 2.68931L378.125 2.63997C377.725 0.019972 381.127 1.48132 380.396 2.28932L390.512 0.306639L393.353 0.61865C394.271 0.893317 395.113 2.88398 396.043 2.98531C405.843 4.05998 416.228 1.88532 425.715 4.19065L425.771 5.20799L427.483 4.55332C431.565 3.73332 453.98 12.064 424.881 12.4946Z" fill="#BEDEEA"/>
</svg>
